<svg width="22" height="21" viewBox="0 0 22 21" fill="none" xmlns="http://www.w3.org/2000/svg">
  <path d="M18.44 1.90039H3.1C2.49 1.90039 2 2.39039 2 3.00039V17.7504C2 18.3804 2.51 18.9004 3.15 18.9004C3.78 18.9004 4.3 18.3904 4.3 17.7504V5.29039C4.3 4.68039 4.79 4.19039 5.4 4.19039H16.09C16.69 4.19039 17.18 4.68039 17.19 5.28039L17.29 15.4704C17.29 16.0804 16.8 16.5804 16.19 16.5804H12.89C12.28 16.5804 11.79 16.0904 11.79 15.4804L11.77 8.18039C11.77 7.55039 11.26 7.04039 10.62 7.04039C9.99 7.04039 9.47 7.55039 9.47 8.19039L9.49 17.8004C9.49 18.4104 9.98 18.9004 10.59 18.9004H18.45C19.06 18.9004 19.55 18.4104 19.55 17.8004V3.00039C19.55 2.39039 19.06 1.90039 18.45 1.90039H18.44Z" fill="#B81A56"/>
</svg>